<?xml version="1.0" standalone="no"?>
<!DOCTYPE svg PUBLIC "-//W3C//DTD SVG 20010904//EN"
 "http://www.w3.org/TR/2001/REC-SVG-20010904/DTD/svg10.dtd">
<svg version="1.0" xmlns="http://www.w3.org/2000/svg"
 width="512.000000pt" height="512.000000pt" viewBox="0 0 512.000000 512.000000"
 preserveAspectRatio="xMidYMid meet">
<metadata>
Created by potrace 1.11, written by Peter Selinger 2001-2013
</metadata>
<g transform="translate(0.000000,512.000000) scale(0.100000,-0.100000)"
fill="#000000" stroke="none">
<path d="M2321 4759 c-39 -31 -59 -58 -84 -111 -30 -65 -35 -70 -76 -81 -24
-6 -54 -22 -68 -35 -14 -13 -27 -21 -30 -18 -5 5 25 66 33 66 3 0 2 -5 -2 -11
-8 -13 -4 -12 64 21 42 20 52 30 57 56 3 18 13 35 23 39 15 6 15 7 1 15 -25
14 -219 -5 -219 -21 0 -5 -7 -6 -15 -3 -8 3 -29 -6 -46 -20 -17 -14 -35 -26
-40 -26 -5 0 -9 -8 -10 -17 0 -11 -3 -13 -6 -5 -8 20 -29 14 -42 -14 -15 -33
-5 -88 26 -136 12 -21 23 -50 23 -65 0 -46 11 -72 26 -66 16 6 18 -15 4 -37
-8 -13 -10 -12 -10 4 0 11 -3 17 -6 13 -3 -3 -1 -22 6 -41 8 -25 19 -38 36
-42 20 -5 23 -11 18 -28 -4 -11 -11 -24 -17 -28 -7 -4 -6 -12 3 -23 11 -13 11
-18 1 -25 -15 -9 -6 -106 11 -116 5 -3 23 -25 40 -47 l30 -42 -7 46 c-5 35 -3
48 9 58 17 15 22 36 6 26 -5 -3 -10 -1 -10 4 0 6 4 11 10 11 5 0 7 13 4 29 -4
17 -1 32 6 36 8 5 11 0 8 -16 -2 -18 2 -24 15 -23 14 2 17 -7 17 -53 0 -37 -4
-52 -11 -47 -6 3 -9 17 -6 30 2 13 1 24 -3 24 -12 0 -20 -28 -14 -44 3 -8 1
-24 -6 -35 -6 -12 -7 -21 -2 -21 5 0 7 -13 4 -30 -2 -16 -8 -30 -13 -30 -5 0
-9 -16 -9 -35 0 -29 3 -33 18 -28 9 4 21 13 25 20 5 7 12 11 18 8 12 -8 12
-45 -1 -45 -14 0 -12 -28 2 -32 9 -3 9 -6 0 -12 -7 -4 -12 -2 -12 3 0 23 -28
9 -33 -16 -6 -34 11 -83 29 -83 16 0 19 -17 3 -22 -7 -2 -3 -25 11 -67 14 -42
19 -74 14 -94 -6 -29 -5 -30 10 -14 10 9 19 17 20 17 3 0 6 -20 9 -62 2 -30
27 -54 27 -26 0 16 39 52 48 44 3 -4 -4 -20 -16 -36 -16 -22 -22 -43 -22 -85
0 -33 -4 -55 -11 -55 -6 0 -9 7 -5 15 3 8 1 15 -4 15 -5 0 -12 -12 -15 -27 -8
-36 -27 -106 -33 -117 -2 -4 -8 -2 -13 5 -4 7 -12 10 -16 5 -4 -5 -2 -11 5
-13 16 -6 15 -23 -2 -23 -17 0 -26 -72 -15 -112 5 -20 4 -28 -5 -28 -10 0 -14
-19 -14 -70 -1 -38 3 -70 8 -70 4 0 13 23 20 50 7 28 16 50 21 50 5 0 9 5 9
11 0 5 -5 7 -11 3 -7 -4 -10 -1 -7 7 3 8 11 13 17 11 6 -1 11 5 11 14 0 8 -4
13 -9 10 -5 -3 -5 12 1 36 5 23 6 55 3 72 -4 24 -3 26 4 11 l9 -20 7 20 c19
53 37 85 45 80 14 -9 9 -58 -9 -78 -12 -15 -13 -22 -3 -38 10 -16 10 -23 -3
-35 -18 -19 -21 -99 -3 -88 8 5 9 2 4 -12 -5 -10 -10 -37 -13 -59 -3 -22 -9
-44 -13 -50 -13 -19 -20 -46 -10 -40 11 7 14 -54 3 -81 -6 -16 -7 -16 -14 2
-6 15 -8 16 -8 3 -1 -19 -28 -33 -36 -19 -15 24 -25 7 -19 -31 6 -34 3 -42
-15 -55 -11 -8 -26 -24 -31 -35 -10 -18 -9 -19 16 -13 l27 7 -19 -26 c-10 -14
-21 -23 -23 -21 -6 6 -57 -24 -72 -42 -12 -16 -12 -17 3 -11 12 4 15 2 11 -9
-3 -7 -14 -14 -24 -14 -14 0 -19 -7 -19 -30 0 -30 14 -41 23 -17 2 6 8 9 12 5
10 -9 -17 -43 -35 -43 -11 0 -16 -13 -18 -43 -2 -29 0 -42 7 -37 24 14 9 -15
-16 -33 -25 -19 -28 -27 -32 -94 -2 -40 -3 -134 -2 -208 1 -169 1 -230 -4
-510 -2 -147 0 -229 7 -237 6 -8 7 -24 2 -40 -11 -39 -13 -203 -2 -232 5 -13
5 -28 0 -35 -24 -30 -22 -273 2 -259 6 3 0 -6 -13 -20 -24 -27 -24 -28 -10
-89 13 -57 17 -63 42 -66 15 -2 27 -9 27 -16 0 -8 16 -16 38 -19 20 -3 163
-24 317 -48 154 -23 316 -44 360 -46 105 -6 329 11 480 37 116 19 121 21 152
57 18 21 28 40 23 41 -6 2 -10 13 -10 25 0 32 -14 49 -34 41 -16 -6 -17 -5 -5
14 11 17 11 24 1 34 -14 14 -16 42 -2 33 15 -9 22 37 11 67 -6 16 -19 28 -32
30 -16 2 -25 13 -31 35 -5 18 -18 39 -30 48 -28 19 -44 20 -29 1 9 -11 10 -20
1 -35 -13 -25 -28 -27 -37 -6 -8 22 6 33 17 15 15 -23 12 6 -2 33 -7 12 -16
24 -19 27 -3 3 -8 13 -12 23 -4 10 -11 16 -16 13 -5 -3 -11 1 -15 9 -3 8 -12
15 -20 15 -9 0 -18 11 -22 25 -6 26 -24 25 -24 -1 0 -9 5 -12 12 -8 8 5 9 2 3
-12 -4 -10 -10 -32 -13 -47 -4 -26 -2 -28 22 -21 19 4 27 2 32 -11 4 -9 2 -20
-4 -24 -5 -3 -12 -17 -14 -31 l-3 -25 -19 21 c-26 31 -56 20 -57 -20 0 -23 -2
-26 -8 -13 -11 29 -26 3 -40 -67 -19 -103 -20 -101 54 -102 45 -1 70 -6 83
-17 10 -9 33 -22 50 -28 18 -6 29 -15 26 -20 -3 -5 8 -9 25 -9 16 0 33 5 36
11 4 6 16 0 29 -15 23 -28 51 -34 59 -13 3 6 6 2 6 -10 1 -35 -22 -40 -127
-26 -53 7 -124 15 -157 18 -33 3 -105 12 -160 20 -55 7 -124 17 -152 20 -36 5
-53 11 -53 21 0 35 -129 51 -170 21 l-25 -18 30 6 c29 6 29 6 10 -10 -13 -10
-28 -14 -45 -9 -14 4 -52 7 -85 8 -46 1 -59 4 -57 15 3 12 0 12 -13 1 -19 -16
-25 -11 -36 32 l-9 33 4 -35 c4 -31 1 -36 -18 -38 -22 -1 -23 1 -18 71 4 60 1
76 -13 90 -9 10 -15 22 -13 28 3 8 10 6 21 -5 9 -10 17 -15 17 -12 0 9 -51 80
-63 88 -20 13 -30 9 -17 -7 18 -22 7 -28 -24 -14 -17 8 -26 20 -26 36 0 14 4
21 10 18 18 -11 10 4 -21 40 -25 28 -29 38 -20 49 8 10 9 16 1 21 -10 6 -14
58 -4 67 10 10 44 -4 44 -18 0 -8 5 -14 10 -14 11 0 13 11 4 34 -3 9 -12 16
-20 16 -8 0 -14 5 -14 12 0 6 -13 39 -29 72 -39 83 -44 107 -42 213 1 51 -2
108 -8 127 -14 53 -5 73 36 79 20 4 43 2 52 -3 9 -5 11 -10 4 -10 -9 0 -9 -10
1 -42 13 -48 29 -53 34 -11 2 15 8 32 13 38 13 13 12 -49 -2 -118 -11 -51 -10
-58 11 -89 57 -82 145 -147 203 -148 4 0 20 -6 36 -15 17 -8 38 -12 47 -8 13
5 15 3 9 -7 -9 -15 0 -13 83 19 53 20 53 20 73 0 10 -10 19 -20 19 -21 0 -2
-16 -4 -35 -5 -19 -2 -35 1 -35 7 0 6 -10 5 -25 -2 -14 -6 -25 -15 -25 -20 0
-5 5 -6 12 -2 7 4 8 3 4 -4 -4 -6 -13 -9 -20 -6 -20 8 -40 -49 -31 -92 8 -44
25 -74 42 -74 18 0 39 -43 24 -48 -14 -5 -15 -32 -1 -32 6 0 10 6 10 13 0 16
49 65 51 51 1 -5 0 -18 0 -30 -2 -27 74 -104 103 -104 26 0 52 -36 37 -54 -7
-8 -4 -16 11 -25 26 -16 118 -31 118 -19 0 5 4 7 9 4 15 -9 54 84 55 128 1 36
-2 41 -24 44 -29 4 -62 31 -54 43 3 5 0 9 -5 9 -6 0 -11 5 -11 11 0 7 -8 17
-17 24 -25 18 -3 41 47 49 31 5 40 11 40 26 0 13 -5 17 -14 14 -8 -3 -24 4
-36 16 -17 17 -19 24 -9 36 17 21 8 25 -44 18 -32 -5 -47 -11 -47 -21 0 -11 8
-14 31 -11 26 4 32 1 40 -20 7 -18 6 -28 -3 -33 -17 -11 -169 -2 -182 11 -10
10 18 76 37 83 6 3 3 6 -8 6 -16 1 -17 3 -5 10 8 6 18 7 22 5 4 -3 8 -1 8 5 0
5 -6 12 -12 14 -10 4 -10 6 0 6 6 1 12 7 12 15 0 7 6 19 14 25 7 6 16 29 20
50 3 22 9 48 12 58 6 16 5 16 -9 -2 -16 -20 -16 -20 -32 2 -20 28 -38 21 -53
-21 -19 -53 -38 -63 -54 -29 -20 43 -52 42 -72 -2 -10 -20 -23 -34 -29 -32
-14 4 -25 40 -26 85 -1 17 -5 32 -10 32 -4 0 -6 11 -3 25 2 14 -3 36 -12 49
-9 14 -20 60 -25 103 -7 63 -31 143 -44 143 -1 0 1 -51 4 -114 4 -85 10 -124
24 -150 15 -28 17 -42 9 -72 -12 -48 -40 -67 -57 -39 -18 30 -26 84 -13 89 6
2 1 12 -12 21 -19 14 -22 23 -18 54 9 57 10 182 1 227 -4 26 -3 44 3 48 7 4 7
18 1 41 -6 19 -8 39 -4 44 3 5 -1 12 -7 14 -9 4 -8 6 2 6 19 1 46 41 29 41 -8
0 -6 6 4 18 25 28 25 57 0 60 -14 2 -23 10 -23 20 0 15 2 15 10 2 8 -12 10
-10 10 11 0 30 17 50 36 42 10 -4 12 0 8 11 -3 9 -3 24 2 33 4 10 8 27 9 38 1
11 5 37 10 57 4 24 3 38 -3 38 -10 0 -72 -119 -72 -139 0 -5 -6 -11 -12 -13
-8 -3 -11 -20 -9 -48 2 -28 -2 -46 -11 -51 -10 -7 -10 -9 2 -9 9 0 16 -9 16
-20 0 -11 -4 -20 -8 -20 -4 0 -7 -3 -7 -7 4 -24 -4 -33 -28 -33 -25 1 -26 2
-10 14 21 16 22 36 3 36 -8 0 -19 -14 -25 -31 -11 -32 -31 -31 -31 2 0 10 -5
19 -11 19 -6 0 -9 -7 -5 -15 3 -8 1 -15 -4 -15 -6 0 -10 8 -10 18 0 10 -7 27
-15 39 -11 16 -13 30 -6 60 l9 38 1 -32 c1 -36 3 -38 32 -23 16 9 17 14 8 32
-10 19 -7 25 25 51 20 16 36 36 36 44 0 11 6 8 20 -8 l19 -24 1 33 c0 26 4 32
21 32 17 0 20 5 17 32 -3 29 0 34 29 42 31 10 52 49 32 62 -5 3 -9 20 -9 38 0
19 -7 39 -15 46 -20 16 -20 51 0 44 12 -5 12 0 5 26 -5 18 -14 38 -20 45 -7 8
-12 29 -14 47 -1 19 -16 52 -34 78 -23 31 -31 51 -27 65 16 49 16 72 1 84 -13
11 -16 11 -16 -2 0 -9 5 -19 10 -22 6 -3 10 -11 10 -18 0 -6 -6 -3 -13 8 -8
10 -19 15 -25 11 -8 -5 -12 4 -12 29 0 19 -7 51 -15 71 -11 26 -12 41 -4 62 9
22 12 24 18 10 4 -12 11 -14 20 -9 9 6 20 2 33 -11 27 -27 31 -19 16 36 -12
47 -24 56 -46 34 -17 -17 -16 40 2 83 7 19 11 49 9 67 -4 25 -2 32 11 32 9 0
16 -4 16 -10 0 -5 7 -10 15 -10 8 0 15 7 15 15 0 8 -5 15 -10 15 -24 0 -20 32
9 69 17 21 31 46 31 55 0 9 7 33 16 54 9 20 18 53 20 72 3 19 11 56 19 82 15
45 14 86 0 120 -5 12 2 27 22 47 24 24 29 35 25 66 -4 35 -3 38 18 32 19 -5
21 -2 16 16 -4 15 12 55 49 124 30 56 55 113 55 126 0 13 9 32 19 41 11 10 24
31 30 47 9 27 9 29 -18 29 -30 0 -55 -21 -65 -57 -6 -19 -39 -40 -56 -36 -3 1
-5 -13 -6 -30 -1 -40 -55 -237 -64 -232 -3 2 -14 -9 -24 -26 -9 -16 -21 -29
-27 -29 -5 0 -9 -15 -9 -32 0 -47 -13 -62 -44 -54 -21 5 -26 12 -26 36 0 17 4
30 10 30 5 0 7 6 4 14 -3 8 4 16 20 20 20 5 26 15 35 59 5 28 10 64 9 80 -1
33 46 107 73 114 30 8 34 47 9 83 -12 16 -19 34 -16 39 4 5 1 11 -5 13 -18 6
0 48 25 58 34 12 76 1 76 -21 0 -11 5 -19 10 -19 19 0 10 18 -25 56 -27 29
-35 45 -33 67 5 53 -18 40 -46 -25 -15 -35 -34 -70 -42 -78 -25 -29 -43 -93
-30 -112 8 -13 8 -23 -2 -38 -19 -31 -15 -43 9 -30 43 23 31 -3 -24 -57 -32
-30 -60 -53 -63 -51 -2 3 7 22 21 43 14 20 24 39 22 42 -3 2 -22 -23 -42 -56
-59 -96 -63 -86 -65 177 0 31 21 67 33 56 10 -10 47 21 56 48 8 23 7 28 -5 28
-8 0 -12 -4 -9 -10 9 -15 -11 -12 -24 4 -9 11 -9 15 1 19 8 4 7 6 -4 6 -19 1
-25 27 -7 33 6 2 8 14 4 31 -8 29 -25 37 -25 12 0 -13 -2 -13 -14 -3 -9 8 -10
15 -4 19 7 4 2 14 -10 25 -15 12 -20 25 -16 41 4 14 2 23 -5 23 -6 0 -11 -13
-11 -28 0 -19 -5 -29 -15 -29 -11 0 -14 6 -9 16 3 9 9 24 11 34 3 9 14 17 24
17 12 0 19 7 19 18 0 22 27 79 41 87 5 4 9 1 9 -5 0 -7 11 -21 25 -32 13 -10
24 -24 22 -30 -1 -7 6 -14 16 -16 12 -2 17 3 17 18 0 13 5 20 13 18 6 -3 12
-11 12 -19 0 -9 12 -14 36 -15 20 0 54 -11 75 -24 22 -13 54 -32 72 -42 31
-18 32 -18 32 2 0 17 3 18 25 8 14 -6 25 -14 25 -17 0 -3 7 -14 14 -24 12 -16
17 -16 35 -6 15 10 17 16 9 26 -6 7 -7 13 -2 13 4 0 -10 13 -32 30 -21 16 -47
30 -56 30 -18 0 -34 18 -24 27 3 4 20 -4 38 -17 17 -12 56 -33 87 -44 44 -17
60 -30 73 -57 20 -39 22 -53 8 -44 -5 3 -10 2 -10 -4 0 -15 46 -65 74 -80 33
-18 35 -52 4 -48 -20 2 -23 -2 -21 -27 2 -31 17 -46 45 -46 14 0 16 6 12 29
-6 30 14 91 29 91 4 0 18 9 30 21 12 11 38 29 57 40 40 21 113 82 89 74 -10
-4 -19 0 -22 10 -4 9 -18 15 -34 15 -64 -1 -78 4 -75 29 1 13 -3 30 -9 37 -6
7 -8 18 -4 25 4 6 1 15 -6 20 -10 6 -8 9 9 9 15 0 22 6 22 20 0 23 -10 26 -28
8 -9 -9 -13 -7 -18 6 -5 13 -9 14 -14 5 -6 -8 -11 -5 -19 10 -10 17 -9 21 4
21 28 0 15 28 -17 38 -61 18 -78 14 -78 -17 0 -16 7 -34 15 -41 8 -7 15 -27
15 -44 0 -18 6 -41 14 -51 23 -32 -5 -78 -37 -58 -6 4 -8 0 -4 -10 10 -26 -8
-21 -64 18 -28 19 -55 35 -60 35 -5 0 -9 5 -9 11 0 6 -7 17 -15 26 -22 21 -15
35 29 58 l37 20 19 -22 c10 -13 28 -23 39 -23 18 0 20 4 15 28 -4 15 -7 39 -8
55 -1 22 -6 27 -28 27 -32 0 -100 38 -92 51 3 5 1 9 -4 9 -5 0 -12 9 -15 19
-4 15 -11 18 -28 14 -13 -4 -28 -11 -32 -17 -5 -6 -7 0 -4 16 4 24 0 27 -39
37 -56 14 -57 14 -71 -9 -14 -21 -7 -53 10 -43 6 3 7 1 3 -5 -14 -23 -14 -51
0 -56 16 -6 19 -32 5 -40 -5 -4 -7 2 -5 11 4 15 -3 19 -38 21 -24 2 -47 7 -52
12 -4 4 -15 6 -22 3 -18 -7 -19 38 -2 55 9 9 8 12 -5 12 -20 0 -16 6 33 57 14
14 19 22 13 19 -17 -9 -18 45 -1 62 9 9 7 12 -9 12 -11 0 -44 -18 -72 -41z
m-8 -144 c4 -8 2 -17 -4 -20 -5 -4 -7 -11 -4 -16 11 -16 14 -49 5 -49 -12 0
-20 27 -20 66 0 35 13 46 23 19z m280 -59 c4 -10 1 -13 -8 -9 -8 3 -12 9 -9
14 7 12 11 11 17 -5z m-409 -51 c-4 -8 -10 -15 -15 -15 -4 0 -6 7 -3 15 4 8
10 15 15 15 4 0 6 -7 3 -15z m-33 -73 c-28 -56 -44 -62 -25 -10 13 38 33 63
42 53 2 -1 -6 -21 -17 -43z m-111 -1 c-6 -13 -21 -21 -35 -21 -22 0 -25 -4
-27 -42 l-1 -43 -4 38 c-5 43 10 67 39 67 10 0 21 7 25 15 3 9 8 14 10 11 3
-2 0 -14 -7 -25z m-20 -46 c0 -8 -4 -15 -10 -15 -5 0 -7 7 -4 15 4 8 8 15 10
15 2 0 4 -7 4 -15z m61 -18 c-10 -9 -11 -8 -5 6 3 10 9 15 12 12 3 -3 0 -11
-7 -18z m799 -22 c0 -8 -4 -15 -9 -15 -13 0 -22 16 -14 24 11 11 23 6 23 -9z
m-810 2 c0 -2 -10 -12 -22 -23 l-23 -19 19 23 c18 21 26 27 26 19z m-75 -27
c-3 -5 -14 -10 -23 -9 -14 0 -13 2 3 9 27 11 27 11 20 0z m931 -65 c-10 -8
-23 -12 -28 -9 -14 9 2 24 25 24 21 -1 21 -1 3 -15z m-796 -31 c0 -8 -5 -12
-11 -9 -7 5 -10 -3 -8 -21 3 -43 0 -64 -10 -64 -13 0 -24 34 -12 38 6 2 11 16
11 31 0 15 3 31 7 34 11 12 23 8 23 -9z m790 -3 c0 -6 -4 -13 -10 -16 -5 -3
-10 1 -10 9 0 9 5 16 10 16 6 0 10 -4 10 -9z m-778 -281 c-10 -12 -18 -16 -21
-9 -2 6 3 15 10 20 24 15 29 10 11 -11z m-25 -62 c-3 -7 -5 -2 -5 12 0 14 2
19 5 13 2 -7 2 -19 0 -25z m50 -20 c-3 -8 -6 -5 -6 6 -1 11 2 17 5 13 3 -3 4
-12 1 -19z m13 -47 c0 -6 -4 -13 -10 -16 -5 -3 -10 1 -10 9 0 9 5 16 10 16 6
0 10 -4 10 -9z m223 -126 c-3 -9 -8 -14 -10 -11 -3 3 -2 9 2 15 9 16 15 13 8
-4z m-228 -95 c3 -5 1 -10 -4 -10 -6 0 -11 5 -11 10 0 6 2 10 4 10 3 0 8 -4
11 -10z m64 -32 c12 -15 11 -18 -3 -18 -10 0 -16 8 -16 22 0 12 1 19 3 17 1
-2 9 -12 16 -21z m56 -12 c-4 -11 -7 -29 -8 -38 -1 -9 -6 -16 -11 -15 -6 1
-11 -4 -12 -10 -3 -27 -5 -27 -16 -9 -10 18 -11 18 -25 -5 -13 -23 -14 -23 -8
-1 14 58 17 65 25 51 6 -9 11 -4 16 17 9 40 12 44 30 37 11 -4 13 -12 9 -27z
m-135 -43 c0 -19 -13 -9 -16 12 -1 8 2 13 7 9 5 -3 9 -12 9 -21z m25 -32 c3
-5 1 -12 -5 -16 -5 -3 -10 1 -10 9 0 18 6 21 15 7z m-52 -828 c-19 -59 -31
-73 -43 -53 -8 12 -10 13 -10 1 0 -8 -2 -12 -5 -9 -9 9 6 38 19 38 8 0 11 11
9 33 -3 24 -2 29 6 17 9 -13 11 -13 11 3 0 9 6 17 14 17 13 0 13 -7 -1 -47z
m87 -87 c0 -2 -7 -7 -16 -10 -8 -3 -12 -2 -9 4 6 10 25 14 25 6z m46 -224
c-18 -16 -18 -16 -6 6 6 13 14 21 18 18 3 -4 -2 -14 -12 -24z m-28 -52 c-7
-10 -14 -17 -17 -15 -4 4 18 35 25 35 2 0 -1 -9 -8 -20z m-27 -68 c-6 -2 -9
-8 -6 -13 9 -14 -13 -47 -35 -54 -11 -3 -20 -12 -20 -20 0 -7 -9 -15 -20 -18
-11 -3 -20 -4 -20 -2 0 6 65 81 75 85 5 3 8 11 7 19 -4 17 21 35 27 19 2 -7
-1 -14 -8 -16z m-131 14 c0 -3 -4 -8 -10 -11 -5 -3 -10 -1 -10 4 0 6 5 11 10
11 6 0 10 -2 10 -4z m-80 -256 c0 -13 -5 -18 -15 -14 -8 4 -15 2 -15 -3 0 -5
-7 -18 -16 -29 -14 -18 -15 -18 -8 6 7 25 33 58 47 59 4 1 7 -8 7 -19z m-35
-136 c-7 -15 -11 -32 -9 -39 3 -7 1 -16 -5 -20 -15 -9 -14 58 1 73 21 21 27
13 13 -14z m179 -40 c22 -8 20 -34 -1 -34 -14 0 -15 -2 -4 -9 11 -7 10 -13 -4
-35 -10 -14 -14 -26 -9 -26 4 0 -3 -11 -16 -25 -36 -38 -60 -28 -60 24 0 16
64 111 75 111 2 0 10 -3 19 -6z m-220 -141 c-22 -16 -34 -17 -34 -2 0 5 5 7
10 4 6 -3 10 3 10 14 0 11 5 32 12 48 l12 28 4 -40 c3 -29 -1 -43 -14 -52z
m117 -8 c0 -6 -10 -12 -23 -13 -19 -4 -20 -2 -9 12 15 17 33 18 32 1z m-41
-40 c0 -8 -4 -15 -10 -15 -5 0 -10 7 -10 15 0 8 5 15 10 15 6 0 10 -7 10 -15z
m170 -63 c0 -21 -2 -22 -15 -12 -8 7 -15 27 -15 44 1 29 1 30 15 12 8 -11 15
-31 15 -44z m-257 28 c-3 -11 -7 -20 -9 -20 -2 0 -4 9 -4 20 0 11 4 20 9 20 5
0 7 -9 4 -20z m172 -39 c-7 -23 -25 -29 -25 -8 0 14 21 39 28 33 2 -3 1 -14
-3 -25z m-100 -21 c-28 -12 -37 -12 -30 0 3 6 16 10 28 9 21 0 21 -1 2 -9z
m-21 -342 c-3 -4 0 -9 6 -13 5 -3 10 -16 10 -28 0 -20 0 -20 -15 -1 -9 12 -14
40 -13 79 l1 60 7 -45 c4 -25 6 -48 4 -52z m36 -108 c0 -5 -4 -10 -10 -10 -5
0 -10 5 -10 10 0 6 5 10 10 10 6 0 10 -4 10 -10z m-12 -78 c-3 -42 -11 -67
-27 -88 l-23 -29 3 40 c2 22 12 48 22 57 9 10 17 26 17 36 0 14 -2 15 -10 2
-7 -11 -10 -11 -10 -2 0 12 20 41 29 42 2 0 2 -26 -1 -58z m732 -76 c0 -14
-36 -26 -58 -18 -20 6 -14 20 11 25 41 8 47 7 47 -7z m-95 -56 c3 -5 1 -10 -4
-10 -6 0 -11 5 -11 10 0 6 2 10 4 10 3 0 8 -4 11 -10z m435 -20 c0 -5 -4 -10
-10 -10 -5 0 -10 5 -10 10 0 6 5 10 10 10 6 0 10 -4 10 -10z m-220 -108 c0
-10 -6 -26 -13 -36 -12 -16 -14 -16 -31 3 -23 26 -14 51 19 51 17 0 25 -5 25
-18z m297 -32 c3 -24 3 -24 -11 -5 -18 24 -20 38 -4 33 6 -2 13 -15 15 -28z
m-1210 -87 c-2 -21 -4 -6 -4 32 0 39 2 55 4 38 2 -18 2 -50 0 -70z m165 60
c22 -20 24 -43 3 -43 -8 0 -15 -5 -15 -11 0 -5 -4 -7 -10 -4 -5 3 -10 17 -10
31 0 14 -4 22 -10 19 -5 -3 -10 -2 -10 4 0 8 13 17 29 20 3 1 13 -6 23 -16z
m1119 -26 c-8 -8 -11 -7 -11 4 0 20 13 34 18 19 3 -7 -1 -17 -7 -23z m-1284
-124 c-3 -10 -5 -2 -5 17 0 19 2 27 5 18 2 -10 2 -26 0 -35z"/>
<path d="M2090 1695 c-11 -13 -10 -14 4 -9 9 3 16 10 16 15 0 13 -6 11 -20 -6z"/>
<path d="M2690 4615 c7 -9 15 -13 17 -11 7 7 -7 26 -19 26 -6 0 -6 -6 2 -15z"/>
<path d="M2895 4560 c4 -6 11 -8 16 -5 14 9 11 15 -7 15 -8 0 -12 -5 -9 -10z"/>
<path d="M2946 4522 c-3 -6 -1 -14 5 -17 15 -10 25 3 12 16 -7 7 -13 7 -17 1z"/>
<path d="M2980 4480 c0 -5 5 -10 10 -10 6 0 10 5 10 10 0 6 -4 10 -10 10 -5 0
-10 -4 -10 -10z"/>
<path d="M2982 4410 c-11 -19 -10 -20 20 -19 18 0 27 3 21 6 -7 2 -13 11 -13
19 0 20 -13 17 -28 -6z"/>
<path d="M2675 4410 c-8 -13 5 -13 25 0 13 8 13 10 -2 10 -9 0 -20 -4 -23 -10z"/>
<path d="M2946 4411 c-4 -7 -5 -15 -2 -18 9 -9 19 4 14 18 -4 11 -6 11 -12 0z"/>
<path d="M2803 4399 c-16 -16 -17 -49 -3 -49 13 0 23 24 18 45 -2 13 -5 14
-15 4z"/>
<path d="M2362 4296 c-6 -15 -12 -31 -12 -36 0 -16 22 -11 36 8 16 20 18 36 5
27 -5 -3 -11 2 -13 12 -2 13 -6 10 -16 -11z"/>
<path d="M2516 4273 c0 -20 6 -27 22 -28 13 -1 22 4 22 12 0 7 -7 13 -15 13
-8 0 -14 5 -12 11 1 6 -3 13 -8 15 -6 2 -10 -8 -9 -23z"/>
<path d="M2292 4260 c14 -22 24 -19 15 5 -4 8 -11 15 -17 15 -6 0 -6 -7 2 -20z"/>
<path d="M2328 4233 c-10 -2 -18 -8 -19 -11 0 -4 -3 -20 -5 -37 -3 -16 -4 -27
-1 -25 8 11 48 80 45 79 -2 -1 -11 -3 -20 -6z"/>
<path d="M2568 4203 c-10 -2 -18 -11 -18 -19 0 -20 13 -17 28 6 7 11 11 19 10
19 -2 -1 -11 -3 -20 -6z"/>
<path d="M2460 4080 c-9 -6 -10 -10 -3 -10 6 0 15 5 18 10 8 12 4 12 -15 0z"/>
<path d="M2895 4060 c-3 -5 -1 -10 4 -10 6 0 11 5 11 10 0 6 -2 10 -4 10 -3 0
-8 -4 -11 -10z"/>
<path d="M2670 4015 c-20 -24 -6 -28 15 -5 10 11 13 20 8 20 -6 0 -16 -7 -23
-15z"/>
<path d="M2880 3969 c-13 -24 -4 -41 10 -19 10 16 13 40 5 40 -2 0 -9 -9 -15
-21z"/>
<path d="M2636 3918 c-3 -7 -10 -31 -17 -52 -6 -22 -22 -49 -35 -62 -15 -13
-22 -28 -18 -38 3 -9 9 -14 13 -11 4 2 7 -14 7 -36 -2 -59 10 -69 25 -20 8 26
17 40 25 37 7 -3 17 7 23 22 5 15 28 47 51 72 33 35 38 46 25 48 -9 2 -27 -6
-40 -18 l-24 -23 5 34 c4 27 1 37 -15 47 -17 10 -22 10 -25 0z"/>
<path d="M2770 3814 c-8 -8 -37 -30 -65 -48 -38 -25 -51 -40 -53 -61 -2 -16
-9 -37 -16 -47 -9 -13 -10 -34 -3 -84 7 -47 6 -78 -2 -105 -14 -47 -31 -42
-31 9 0 20 -7 50 -15 66 -8 15 -15 36 -16 45 -1 33 -20 -35 -29 -105 -8 -59
-14 -77 -40 -104 -17 -18 -28 -39 -25 -47 3 -8 5 -24 5 -35 0 -32 21 -16 49
38 18 33 34 50 49 52 21 3 22 0 21 -71 -1 -85 20 -137 72 -181 25 -21 34 -24
45 -15 11 9 21 9 40 0 36 -16 109 -14 124 4 11 13 10 14 -3 9 -21 -8 -71 41
-63 62 3 9 6 24 6 34 0 12 10 20 35 24 32 6 35 10 35 44 1 20 7 63 15 95 12
50 12 66 -1 114 -8 31 -17 60 -20 64 -3 5 2 9 10 9 23 0 20 16 -5 34 -19 13
-21 21 -16 60 7 46 7 46 -24 46 -30 0 -69 -15 -79 -31 -3 -4 -19 -10 -35 -14
-28 -6 -29 -5 -11 9 10 8 23 13 29 9 6 -3 7 -1 3 5 -4 7 8 18 33 28 40 16 50
27 32 39 -5 3 -12 19 -16 35 -7 33 -13 35 -35 14z m-203 -276 c-3 -8 -6 -5 -6
6 -1 11 2 17 5 13 3 -3 4 -12 1 -19z m-10 -40 c-3 -8 -6 -5 -6 6 -1 11 2 17 5
13 3 -3 4 -12 1 -19z m253 -152 c0 -16 -18 -31 -27 -22 -8 8 5 36 17 36 5 0
10 -6 10 -14z"/>
<path d="M3000 3616 c0 -8 5 -18 10 -21 6 -3 10 1 10 9 0 8 -4 18 -10 21 -5 3
-10 -1 -10 -9z"/>
<path d="M2110 3351 c0 -25 6 -27 13 -6 4 8 2 17 -3 20 -6 4 -10 -3 -10 -14z"/>
<path d="M2142 3315 c-15 -33 -15 -46 1 -40 6 3 12 19 13 35 1 36 0 37 -14 5z"/>
<path d="M2937 3264 c-4 -4 -7 -17 -7 -28 0 -12 -7 -32 -16 -44 -11 -16 -14
-33 -9 -55 3 -18 7 -42 8 -54 1 -11 5 -19 10 -16 4 2 7 -1 7 -7 0 -18 -51 -32
-79 -21 -14 6 -67 9 -118 7 -88 -3 -93 -3 -108 21 -15 23 -47 40 -88 48 -53
11 -58 16 -55 51 1 18 -3 39 -10 46 -11 11 -12 10 -7 -3 3 -8 -1 -29 -10 -45
-8 -16 -15 -35 -15 -42 0 -7 -4 -10 -10 -7 -5 3 -7 0 -4 -9 3 -8 0 -25 -7 -38
-7 -13 -12 -26 -11 -30 3 -12 -16 -9 -20 3 -2 5 -11 7 -21 3 -10 -3 -16 -12
-13 -19 3 -8 -4 -10 -19 -8 -16 4 -24 -1 -28 -16 -3 -14 0 -21 10 -21 8 0 20
-13 26 -29 6 -15 22 -33 36 -39 22 -10 22 -11 4 -8 -12 2 -24 -1 -27 -8 -3 -7
-8 -6 -15 4 -9 12 -11 11 -11 -7 0 -16 8 -23 30 -28 33 -7 41 -25 11 -25 -22
0 -36 -26 -18 -34 7 -4 2 -4 -10 -2 -13 2 -24 1 -24 -2 -9 -54 -7 -74 11 -92
11 -11 20 -27 20 -36 0 -14 3 -14 15 -4 8 7 15 20 15 29 1 14 2 14 11 -2 5 -9
7 -22 4 -27 -3 -6 1 -10 11 -10 11 0 15 6 11 20 -3 13 0 20 10 20 10 0 13 -6
8 -17 -5 -14 -4 -15 6 -6 10 10 9 17 -6 33 -14 16 -20 17 -27 8 -5 -8 -8 2 -8
25 0 23 4 36 10 32 6 -3 10 -1 10 4 0 6 5 11 10 11 6 0 10 -6 10 -14 0 -9 10
-12 31 -10 17 2 36 1 41 -2 15 -10 -14 -25 -34 -18 -10 3 -18 1 -18 -5 0 -6 7
-11 17 -11 15 0 15 -1 0 -18 -24 -26 -21 -33 9 -21 15 5 30 7 33 3 3 -4 0 -9
-6 -11 -7 -3 -13 -9 -13 -15 0 -6 7 -8 14 -5 9 4 13 1 10 -7 -3 -7 2 -25 10
-41 8 -16 13 -32 10 -37 -3 -4 -1 -8 5 -8 5 0 12 -13 16 -30 4 -18 15 -32 28
-36 45 -14 51 -54 8 -54 -16 0 -32 6 -34 13 -3 7 -6 7 -6 1 -1 -6 7 -18 17
-26 20 -18 62 -8 62 16 0 22 31 28 46 9 13 -16 15 -16 27 -2 20 26 54 30 61 7
3 -14 10 -19 20 -15 19 8 22 -29 6 -83 l-10 -35 25 30 c13 17 25 37 25 45 1
12 3 12 13 -2 12 -15 15 -15 32 9 16 20 19 39 16 93 -1 40 2 70 8 74 5 4 8 14
5 24 -3 9 2 6 10 -8 21 -35 20 -85 -5 -164 -17 -54 -25 -66 -38 -61 -13 5 -14
4 -3 -6 6 -7 12 -34 12 -60 0 -29 9 -67 25 -101 14 -29 25 -60 25 -69 0 -23
60 -110 71 -103 5 3 7 21 3 40 -5 26 1 49 23 96 29 62 30 64 25 203 -3 77 -4
158 -3 180 5 150 -1 460 -9 465 -6 4 -15 32 -20 63 -5 31 -14 66 -20 78 -7 12
-17 40 -24 63 -11 38 -33 56 -49 40z m-434 -260 c31 -30 61 -53 67 -49 5 3 10
2 10 -3 0 -5 9 -12 20 -15 11 -3 20 -13 20 -22 0 -14 -3 -15 -15 -5 -19 15
-19 1 -1 -23 11 -14 15 -15 19 -5 4 9 6 8 6 -3 1 -22 -29 -58 -35 -41 -3 6
-21 12 -40 12 -20 0 -33 4 -29 9 3 5 1 12 -4 15 -5 3 -11 -1 -15 -9 -3 -8 -17
-15 -31 -15 -14 0 -38 -8 -52 -17 l-26 -17 8 44 c4 25 8 61 9 80 4 53 17 120
25 120 3 0 32 -25 64 -56z m223 -55 c4 -8 30 -10 75 -7 38 3 69 3 70 -1 0 -3
1 -38 2 -77 1 -42 8 -78 16 -88 7 -8 10 -23 7 -33 -5 -13 -10 -10 -24 18 -16
32 -20 34 -59 31 -30 -2 -43 1 -43 10 0 23 18 41 34 35 9 -4 16 -1 17 6 0 7 2
19 4 27 2 12 -6 15 -34 12 -50 -4 -86 17 -86 51 -1 28 9 35 21 16z m-336 -123
c0 -3 -4 -8 -10 -11 -5 -3 -10 -1 -10 4 0 6 5 11 10 11 6 0 10 -2 10 -4z m401
-104 c-8 -25 -7 -30 5 -25 8 3 14 9 14 14 0 5 7 9 15 9 8 0 15 -7 15 -15 0 -9
-6 -12 -15 -9 -12 5 -15 -2 -15 -30 0 -20 -4 -36 -10 -36 -5 0 -10 11 -10 24
0 14 -4 28 -10 31 -14 9 -12 62 3 68 17 6 18 4 8 -31z m44 -113 c-4 -11 -2
-19 4 -19 6 0 11 -10 11 -21 0 -19 -2 -20 -17 -8 -11 10 -14 10 -9 2 4 -7 3
-13 -2 -13 -5 0 -12 14 -14 30 -3 17 -1 30 4 30 4 0 8 7 8 16 0 8 5 12 10 9 6
-4 8 -15 5 -26z m-171 -107 c2 -4 -4 -8 -14 -8 -10 0 -16 4 -14 8 3 4 9 8 14
8 5 0 11 -4 14 -8z"/>
<path d="M2161 3054 c0 -11 3 -14 6 -6 3 7 2 16 -1 19 -3 4 -6 -2 -5 -13z"/>
<path d="M2122 2845 c0 -16 2 -22 5 -12 2 9 2 23 0 30 -3 6 -5 -1 -5 -18z"/>
<path d="M2101 2819 c1 -8 -3 -27 -9 -42 -16 -39 -15 -43 11 -44 12 0 17 1 10
4 -8 3 -7 12 5 32 15 27 15 30 -2 46 -13 13 -17 14 -15 4z"/>
<path d="M2071 2812 c-1 -8 -9 -26 -19 -40 -25 -36 -34 -62 -21 -62 13 0 52
87 45 103 -3 8 -5 8 -5 -1z"/>
<path d="M2331 2639 c6 -12 8 -34 5 -50 -6 -30 1 -62 13 -55 3 2 6 -17 6 -42
0 -26 4 -56 8 -67 8 -18 9 -18 18 -3 6 10 5 26 -1 43 -13 34 -13 38 1 29 9 -5
10 1 4 22 -5 16 -8 49 -7 74 2 41 1 43 -12 25 -15 -19 -15 -19 -16 6 0 15 -7
29 -15 33 -13 5 -14 2 -4 -15z"/>
<path d="M2023 2630 c1 -11 5 -20 9 -20 4 0 8 9 8 20 0 11 -4 20 -9 20 -6 0
-9 -9 -8 -20z"/>
<path d="M2415 2640 c-3 -5 1 -10 9 -10 9 0 16 5 16 10 0 6 -4 10 -9 10 -6 0
-13 -4 -16 -10z"/>
<path d="M1993 2615 c-7 -8 -14 -29 -15 -47 -2 -18 -11 -39 -20 -46 -10 -7
-18 -18 -18 -24 0 -6 10 -2 23 10 13 12 28 22 33 22 6 0 10 23 10 50 0 28 0
50 0 50 -1 -1 -7 -7 -13 -15z"/>
<path d="M2300 2600 c-13 -8 -12 -10 3 -10 9 0 17 5 17 10 0 12 -1 12 -20 0z"/>
<path d="M2390 2530 c0 -5 5 -10 11 -10 5 0 7 5 4 10 -3 6 -8 10 -11 10 -2 0
-4 -4 -4 -10z"/>
<path d="M2722 2446 c-6 -13 -8 -27 -5 -30 9 -8 33 14 33 30 0 24 -17 24 -28
0z"/>
<path d="M2517 2399 c-3 -13 -1 -19 6 -16 15 5 22 37 9 37 -5 0 -12 -9 -15
-21z"/>
<path d="M2760 2405 c0 -8 5 -15 10 -15 6 0 10 7 10 15 0 8 -4 15 -10 15 -5 0
-10 -7 -10 -15z"/>
<path d="M2370 2384 c0 -8 5 -12 10 -9 6 3 10 10 10 16 0 5 -4 9 -10 9 -5 0
-10 -7 -10 -16z"/>
<path d="M2380 2350 c0 -5 5 -10 11 -10 5 0 7 5 4 10 -3 6 -8 10 -11 10 -2 0
-4 -4 -4 -10z"/>
<path d="M2632 2303 c-6 -3 -9 -9 -6 -15 4 -6 0 -14 -7 -19 -10 -6 -8 -9 9 -9
13 0 21 4 18 9 -4 5 0 11 6 14 9 3 10 8 3 15 -5 5 -16 7 -23 5z"/>
<path d="M2662 2244 c-7 -8 -24 -14 -37 -14 -29 0 -34 -16 -7 -23 16 -4 16 -4
0 -12 -26 -11 -48 1 -48 27 -1 21 -2 21 -17 -7 -16 -29 -19 -84 -7 -137 4 -21
12 -28 29 -28 32 0 95 28 102 45 3 8 8 15 13 15 11 0 1 -90 -16 -133 -8 -20
-14 -46 -14 -57 0 -21 -15 -27 -24 -11 -4 5 0 11 6 14 7 2 1 4 -14 3 -26 -1
-27 -3 -21 -46 3 -25 9 -51 13 -59 4 -8 3 -28 -2 -45 -30 -102 -28 -185 9
-316 28 -100 104 -203 159 -215 16 -3 37 -11 48 -16 14 -8 21 -6 33 11 16 23
133 246 133 254 0 2 -9 2 -19 -1 -13 -3 -21 2 -26 17 -7 23 -1 34 18 36 37 4
58 18 55 38 -1 11 2 28 7 36 5 9 1 8 -13 -4 -27 -24 -52 -14 -53 21 0 15 -4
37 -8 48 -5 11 -1 42 9 74 14 47 14 64 3 130 -9 52 -20 83 -36 100 -36 39 -67
107 -67 146 0 19 -3 35 -7 35 -5 -1 -24 -21 -43 -46 -30 -38 -35 -42 -38 -24
-2 12 2 28 9 36 10 12 9 13 -5 8 -20 -8 -21 0 0 20 14 15 12 16 -18 16 -24 0
-41 -8 -62 -31 -22 -23 -36 -29 -60 -27 -25 2 -32 8 -34 31 -2 15 1 27 7 27
11 0 66 68 60 74 -2 2 -10 -2 -17 -10z m278 -838 c0 -3 -4 -8 -10 -11 -5 -3
-10 -1 -10 4 0 6 5 11 10 11 6 0 10 -2 10 -4z m-149 -143 c13 -16 12 -17 -3
-4 -17 13 -22 21 -14 21 2 0 10 -8 17 -17z"/>
<path d="M2444 2025 c-10 -8 -14 -15 -8 -15 6 0 17 7 24 15 16 19 9 19 -16 0z"/>
<path d="M2200 2000 c0 -5 5 -10 12 -10 9 0 9 -3 0 -12 -17 -17 -15 -28 7 -28
10 0 22 7 25 16 9 23 7 36 -4 29 -5 -3 -10 -1 -10 4 0 6 -7 11 -15 11 -8 0
-15 -4 -15 -10z"/>
<path d="M2495 2000 c-3 -6 1 -7 9 -4 18 7 21 14 7 14 -6 0 -13 -4 -16 -10z"/>
<path d="M2316 1943 c-6 -14 -5 -15 5 -6 7 7 10 15 7 18 -3 3 -9 -2 -12 -12z"/>
<path d="M2295 1670 c3 -5 8 -10 11 -10 2 0 4 5 4 10 0 6 -5 10 -11 10 -5 0
-7 -4 -4 -10z"/>
<path d="M2410 1536 c0 -5 20 -67 32 -98 11 -29 28 -38 28 -16 0 20 -43 118
-52 118 -4 0 -8 -2 -8 -4z"/>
<path d="M3020 1405 c0 -9 -6 -12 -15 -9 -10 4 -15 0 -15 -11 0 -9 -5 -13 -11
-9 -8 5 -8 1 0 -14 9 -16 6 -23 -19 -42 -38 -29 -38 -57 -1 -130 20 -40 33
-55 48 -55 11 0 30 -8 40 -18 18 -16 22 -16 33 -2 7 8 25 15 41 15 23 0 32 6
40 28 6 15 15 35 20 44 13 26 11 32 -6 18 -15 -13 -25 3 -41 65 -3 14 -12 25
-20 25 -13 0 -19 20 -15 44 3 12 -32 35 -44 29 -5 -4 -7 -3 -3 2 4 4 1 14 -7
21 -18 18 -25 18 -25 -1z"/>
<path d="M2945 1350 c3 -5 8 -10 11 -10 2 0 4 5 4 10 0 6 -5 10 -11 10 -5 0
-7 -4 -4 -10z"/>
<path d="M2690 1120 c0 -13 7 -20 18 -20 10 0 23 -5 29 -11 6 -6 19 -9 29 -7
15 3 11 9 -21 31 -47 32 -55 33 -55 7z"/>
<path d="M3100 883 c0 -4 5 -15 10 -23 8 -13 10 -13 10 2 0 9 -4 20 -10 23 -5
3 -10 3 -10 -2z"/>
<path d="M2130 810 c0 -15 21 -23 32 -12 6 6 2 11 -11 15 -12 3 -21 1 -21 -3z"/>
<path d="M2205 740 c-6 -9 11 -50 20 -50 3 0 5 14 5 30 0 29 -13 40 -25 20z"/>
<path d="M2770 578 c0 -5 -10 -7 -22 -3 -20 5 -21 5 -5 -5 12 -8 27 -8 45 -2
26 8 26 9 4 14 -12 4 -22 2 -22 -4z"/>
<path d="M3000 466 c0 -9 5 -16 10 -16 6 0 10 4 10 9 0 6 -4 13 -10 16 -5 3
-10 -1 -10 -9z"/>
</g>
</svg>
