<?xml version="1.0" standalone="no"?>
<!DOCTYPE svg PUBLIC "-//W3C//DTD SVG 20010904//EN"
 "http://www.w3.org/TR/2001/REC-SVG-20010904/DTD/svg10.dtd">
<svg version="1.0" xmlns="http://www.w3.org/2000/svg"
 width="512.000000pt" height="512.000000pt" viewBox="0 0 512.000000 512.000000"
 preserveAspectRatio="xMidYMid meet">
<metadata>
Created by potrace 1.11, written by Peter Selinger 2001-2013
</metadata>
<g transform="translate(0.000000,512.000000) scale(0.100000,-0.100000)"
fill="#000000" stroke="none">
<path d="M2350 4798 c0 -4 -15 -14 -34 -22 -19 -8 -42 -25 -51 -39 -13 -21
-26 -26 -83 -30 -101 -8 -207 -26 -210 -37 -2 -6 -10 -10 -18 -10 -24 0 -92
-50 -98 -73 -7 -30 11 -103 34 -135 14 -20 20 -47 22 -99 2 -40 6 -73 11 -73
4 0 7 -9 7 -19 0 -11 5 -23 10 -26 6 -3 10 -39 10 -78 0 -95 11 -128 59 -184
27 -32 37 -51 31 -59 -6 -6 -8 -13 -5 -16 4 -4 15 -120 18 -185 0 -7 4 -13 9
-13 4 0 8 -10 8 -23 0 -13 4 -27 8 -32 22 -25 49 -123 46 -160 -3 -22 -5 -57
-6 -77 -1 -21 -4 -38 -8 -38 -4 0 -5 -11 -2 -25 2 -14 0 -25 -4 -25 -5 0 -9
-30 -10 -68 -1 -119 -9 -210 -16 -205 -9 4 -9 -6 -10 -137 -1 -80 -27 -178
-50 -188 -4 -2 -8 -12 -8 -23 0 -10 -4 -19 -10 -19 -5 0 -10 -7 -10 -15 0 -8
-11 -48 -25 -89 -14 -41 -25 -86 -25 -100 0 -14 -5 -26 -11 -26 -5 0 -8 -4 -5
-8 3 -5 -1 -29 -9 -55 -9 -30 -11 -56 -5 -76 6 -24 3 -36 -18 -66 l-27 -38 -1
-396 c0 -227 3 -404 9 -415 6 -12 6 -16 -1 -12 -6 3 -11 -21 -14 -62 -3 -37
-2 -68 2 -70 3 -1 4 -109 2 -240 -2 -130 -4 -274 -4 -319 0 -46 -3 -83 -8 -83
-10 0 -9 -18 5 -98 7 -36 12 -43 39 -51 17 -4 30 -13 29 -20 -2 -6 3 -11 10
-11 6 0 88 -11 181 -25 92 -14 182 -28 200 -30 17 -3 94 -14 171 -26 117 -18
164 -20 285 -14 141 6 299 24 410 46 91 18 130 69 130 171 0 92 -13 127 -70
183 -70 70 -152 192 -154 230 0 16 -7 36 -13 43 -16 17 -17 63 -1 97 8 18 19
25 40 25 16 0 36 6 44 14 12 12 35 57 38 76 1 3 4 10 7 15 10 15 2 45 -15 64
-9 10 -13 21 -9 24 3 4 1 7 -6 7 -7 0 -10 4 -6 9 6 10 -49 54 -57 45 -3 -3
-24 13 -47 34 -23 21 -38 41 -34 45 3 4 2 7 -4 7 -14 0 -10 39 12 115 1 6 3
14 3 19 0 5 5 12 12 16 13 8 18 140 8 219 -5 39 -1 84 14 155 11 56 21 106 22
113 1 7 5 16 9 19 12 13 7 316 -7 387 -11 56 -11 78 0 124 18 78 22 391 5 421
-7 13 -14 31 -16 40 -2 9 -11 42 -19 72 -18 65 -21 143 -5 172 8 15 8 19 0 14
-6 -4 -11 0 -12 11 0 10 -3 27 -6 38 -3 11 -5 73 -5 138 0 64 -4 117 -8 117
-17 0 -97 87 -104 113 -3 15 -15 36 -26 47 -13 13 -18 29 -15 57 7 69 23 162
31 174 4 7 6 39 5 71 -1 32 2 58 6 58 5 0 18 8 29 18 10 10 22 18 26 18 4 -1
32 18 63 42 46 36 55 48 55 75 0 18 -7 43 -16 55 -8 12 -23 46 -32 74 -13 40
-25 56 -52 71 -19 11 -37 23 -40 27 -3 5 -23 11 -45 16 -22 4 -49 13 -60 20
-11 8 -31 14 -46 14 -52 0 -139 23 -139 36 0 8 -4 14 -9 14 -6 0 -16 12 -23
28 -8 17 -35 38 -75 58 -35 18 -63 30 -63 28 0 -3 -14 3 -32 12 -32 17 -118
25 -118 12z"/>
</g>
</svg>
